<?xml version="1.0" standalone="no"?>
<!DOCTYPE svg PUBLIC "-//W3C//DTD SVG 20010904//EN"
 "http://www.w3.org/TR/2001/REC-SVG-20010904/DTD/svg10.dtd">
<svg version="1.0" xmlns="http://www.w3.org/2000/svg"
 width="1016.000000pt" height="246.000000pt" viewBox="0 0 1016.000000 246.000000"
 preserveAspectRatio="xMidYMid meet">

<g transform="translate(0.000000,246.000000) scale(0.100000,-0.100000)"
fill="#000000" stroke="none">
<path d="M3765 2124 c-131 -28 -174 -53 -175 -101 0 -25 43 -63 72 -63 11 0
27 -4 37 -10 17 -9 19 -37 25 -402 3 -216 3 -512 -1 -657 l-8 -264 -50 -27
c-41 -22 -51 -32 -53 -58 -3 -24 2 -34 24 -49 25 -16 51 -18 215 -18 170 0
189 2 208 19 37 34 27 62 -34 97 -31 17 -61 41 -68 53 -8 15 -13 200 -17 711
-5 649 -6 692 -24 725 -10 19 -24 38 -30 42 -11 8 -86 9 -121 2z"/>
<path d="M915 2050 c-156 -8 -182 -17 -189 -62 -3 -18 -12 -78 -20 -133 -17
-105 -20 -182 -10 -209 4 -12 20 -16 55 -16 61 0 79 18 126 122 31 68 40 79
71 89 52 17 228 7 250 -15 15 -15 17 -66 20 -559 3 -558 1 -586 -37 -606 -9
-5 -36 -12 -61 -16 -145 -22 -208 -86 -144 -146 l25 -24 297 -3 c163 -2 315 0
337 5 50 11 74 47 60 90 -11 31 -82 73 -125 73 -53 0 -97 20 -108 48 -7 18
-12 219 -14 585 -3 487 -1 559 12 568 9 5 67 8 136 7 142 -3 144 -5 196 -105
39 -78 77 -113 121 -113 68 0 70 11 44 225 -24 190 -19 186 -209 196 -168 9
-647 8 -833 -1z"/>
<path d="M2645 2031 c-109 -23 -180 -62 -276 -153 -159 -151 -232 -346 -231
-623 0 -108 4 -159 21 -225 42 -171 99 -285 193 -386 124 -132 215 -167 428
-167 206 0 305 33 420 140 107 99 161 200 209 390 17 68 21 113 21 253 0 201
-16 280 -85 426 -54 111 -116 190 -198 247 -83 59 -137 82 -231 101 -97 20
-168 19 -271 -3z m269 -212 c114 -50 202 -174 246 -349 31 -121 31 -330 0
-449 -48 -190 -141 -304 -280 -345 -68 -20 -118 -20 -194 1 -52 14 -70 26
-126 82 -73 74 -114 150 -151 276 -20 68 -23 101 -22 225 1 167 23 259 86 372
58 104 169 195 257 212 44 8 138 -4 184 -25z"/>
<path d="M7245 1919 c-45 -13 -80 -64 -80 -117 0 -37 5 -48 34 -74 31 -27 39
-30 85 -25 43 4 55 10 83 42 37 43 41 71 17 121 -24 50 -79 71 -139 53z"/>
<path d="M4386 1879 c-37 -44 -41 -70 -17 -117 24 -46 66 -65 127 -55 80 13
113 116 55 174 -25 25 -37 29 -84 29 -49 0 -58 -3 -81 -31z"/>
<path d="M5735 1569 c-27 -5 -76 -11 -108 -15 -47 -4 -61 -10 -74 -31 -15 -23
-15 -28 -2 -52 8 -14 31 -37 52 -50 40 -27 49 -60 23 -96 -7 -11 -17 -35 -21
-53 -4 -18 -13 -45 -21 -60 -8 -15 -14 -32 -14 -38 0 -20 -85 -244 -137 -361
-34 -79 -57 -71 -91 32 -40 123 -102 324 -137 445 -55 193 -78 251 -102 267
-19 13 -40 13 -137 4 -64 -6 -122 -14 -130 -17 -9 -3 -18 -21 -22 -40 -8 -44
13 -77 58 -90 21 -6 38 -20 47 -39 18 -38 83 -219 126 -355 18 -58 52 -159 74
-225 23 -66 46 -133 51 -150 28 -92 52 -151 67 -162 23 -18 174 -17 216 0 36
16 64 65 127 227 12 30 26 66 32 80 5 14 42 111 80 215 86 229 102 272 115
305 58 143 68 228 31 254 -24 17 -29 18 -103 5z"/>
<path d="M6420 1564 c-194 -33 -332 -154 -390 -344 -33 -111 -34 -315 0 -415
28 -84 58 -135 114 -193 54 -56 118 -96 185 -116 104 -30 336 -17 444 26 58
23 82 87 57 152 -12 34 -40 34 -127 0 -86 -33 -241 -37 -311 -9 -72 29 -152
135 -152 202 0 23 32 43 69 43 63 0 263 40 334 67 92 34 144 76 183 148 30 53
34 69 34 137 0 90 -20 145 -73 199 -64 66 -126 92 -267 112 -14 2 -59 -2 -100
-9z m151 -187 c41 -27 79 -82 79 -112 0 -13 -15 -45 -32 -71 -48 -72 -122
-104 -249 -111 -149 -9 -167 13 -107 134 35 71 103 146 152 168 50 22 118 18
157 -8z"/>
<path d="M8206 1563 c-26 -8 -73 -30 -104 -48 -63 -37 -70 -36 -122 16 -31 32
-32 32 -109 26 -87 -7 -168 -33 -185 -60 -18 -28 12 -69 63 -87 23 -8 46 -22
51 -30 14 -25 23 -384 15 -575 l-7 -176 -27 -12 c-56 -24 -81 -48 -81 -77 0
-23 7 -34 33 -47 28 -16 62 -18 294 -18 l263 0 26 27 c26 25 26 28 11 51 -17
26 -60 44 -169 72 -111 28 -103 1 -103 327 l0 283 26 50 c29 54 86 95 133 95
16 0 41 -14 65 -35 23 -21 49 -35 64 -35 53 0 187 86 187 121 0 15 -54 71 -89
93 -36 22 -144 57 -172 55 -8 -1 -36 -8 -63 -16z"/>
<path d="M8985 1561 c-83 -21 -121 -39 -197 -98 -64 -49 -98 -91 -98 -122 0
-23 46 -48 140 -77 63 -19 87 -10 101 37 31 103 115 135 222 86 44 -20 60 -34
76 -66 24 -47 27 -98 7 -146 -17 -40 -35 -50 -101 -59 -259 -33 -428 -137
-469 -288 -16 -60 -16 -68 -1 -130 23 -89 90 -167 173 -199 106 -41 283 -28
367 28 31 21 61 15 110 -19 40 -29 53 -32 113 -32 65 0 121 19 137 44 13 21
-5 58 -49 102 l-44 45 -5 304 c-5 335 -13 384 -69 465 -52 74 -109 106 -227
128 -98 19 -96 19 -186 -3z m248 -632 c25 -31 23 -114 -5 -169 -55 -109 -230
-152 -306 -76 -24 23 -27 34 -27 90 0 55 4 68 25 91 41 44 87 66 163 80 86 17
126 12 150 -16z"/>
<path d="M4314 1531 c-57 -22 -74 -39 -74 -71 0 -33 26 -58 74 -71 20 -5 41
-19 47 -31 14 -27 24 -413 14 -590 l-7 -138 -54 -31 c-40 -22 -54 -36 -54 -53
0 -60 48 -75 245 -76 143 0 199 11 215 40 16 30 -3 56 -60 85 -27 13 -52 30
-57 37 -4 7 -11 193 -14 413 -5 350 -8 405 -24 443 -9 23 -26 47 -36 52 -28
16 -169 10 -215 -9z"/>
<path d="M7106 1531 c-53 -18 -68 -39 -59 -81 8 -36 20 -47 61 -61 20 -6 43
-18 50 -27 9 -12 12 -101 12 -366 0 -193 -4 -356 -8 -361 -4 -6 -28 -23 -53
-38 -84 -48 -71 -110 25 -122 66 -8 334 -1 358 9 19 8 28 38 21 65 -2 10 -22
28 -44 40 -74 42 -69 10 -69 444 0 216 -5 410 -10 432 -5 22 -21 50 -35 63
-23 19 -37 22 -113 21 -55 0 -105 -7 -136 -18z"/>
</g>
</svg>
